<svg width="649" height="647" viewBox="0 0 649 647" fill="none" xmlns="http://www.w3.org/2000/svg">
<path d="M640.455 372.469C638.532 384.758 635.895 396.925 632.556 408.907L324.299 323.015L640.455 372.469Z" fill="#FF0000"/>
<path d="M619.433 446.693C614.625 458.165 609.153 469.347 603.044 480.182L324.299 323.015L619.433 446.693Z" fill="#FF0000"/>
<path d="M581.259 513.729C573.845 523.717 565.856 533.265 557.331 542.323L324.299 323.015L581.259 513.729Z" fill="#FF0000"/>
<path d="M528.151 569.682C518.563 577.606 508.521 584.964 498.076 591.719L324.299 323.015L528.151 569.682Z" fill="#FF0000"/>
<path d="M463.196 611.299C451.99 616.698 440.479 621.439 428.721 625.498L324.299 323.015L463.196 611.299Z" fill="#FF0000"/>
<path d="M390.169 636.162C377.997 638.723 365.686 640.571 353.298 641.698L324.299 323.015L390.169 636.162Z" fill="#FF0000"/>
<path d="M313.314 642.826C300.883 642.399 288.487 641.248 276.189 639.378L324.299 323.015L313.314 642.826Z" fill="#FF0000"/>
<path d="M237.097 630.904C225.129 627.515 213.369 623.43 201.877 618.671L324.299 323.015L237.097 630.904Z" fill="#FF0000"/>
<path d="M165.948 601.089C155.14 594.933 144.699 588.153 134.679 580.783L324.299 323.015L165.948 601.089Z" fill="#FF0000"/>
<path d="M104.002 555.113C94.9807 546.549 86.4658 537.468 78.5012 527.913L324.299 323.015L104.002 555.113Z" fill="#FF0000"/>
<path d="M54.8593 495.648C48.1489 485.174 42.0549 474.319 36.6083 463.136L324.299 323.015L54.8593 495.648Z" fill="#FF0000"/>
<path d="M21.375 426.15C17.3661 414.375 14.0471 402.377 11.435 390.215L324.299 323.015L21.375 426.15Z" fill="#FF0000"/>
<path d="M5.49558 350.659C4.42104 338.266 4.06997 325.822 4.44413 313.389L324.299 323.015L5.49558 350.659Z" fill="#FF0000"/>
<path d="M8.14386 273.561C10.0662 261.271 12.7034 249.105 16.0421 237.123L324.299 323.015L8.14386 273.561Z" fill="#FF0000"/>
<path d="M29.1659 199.337C33.9734 187.865 39.4457 176.683 45.5549 165.848L324.299 323.015L29.1659 199.337Z" fill="#FF0000"/>
<path d="M67.3401 132.301C74.7533 122.312 82.7426 112.765 91.2673 103.707L324.299 323.015L67.3401 132.301Z" fill="#FF0000"/>
<path d="M120.448 76.348C130.036 68.4241 140.078 61.066 150.523 54.3112L324.299 323.015L120.448 76.348Z" fill="#FF0000"/>
<path d="M185.403 34.7308C196.608 29.3318 208.12 24.5907 219.877 20.5318L324.299 323.015L185.403 34.7308Z" fill="#FF0000"/>
<path d="M258.43 9.86766C270.602 7.30725 282.913 5.45875 295.301 4.33154L324.299 323.015L258.43 9.86766Z" fill="#FF0000"/>
<path d="M335.285 3.20351C347.716 3.63052 360.112 4.78201 372.409 6.65207L324.299 323.015L335.285 3.20351Z" fill="#FF0000"/>
<path d="M411.501 15.1256C423.469 18.5152 435.229 22.5998 446.722 27.3584L324.299 323.015L411.501 15.1256Z" fill="#FF0000"/>
<path d="M482.65 44.9411C493.459 51.0963 503.9 57.8766 513.92 65.2473L324.299 323.015L482.65 44.9411Z" fill="#FF0000"/>
<path d="M544.596 90.9173C553.618 99.4804 562.133 108.562 570.097 118.117L324.299 323.015L544.596 90.9173Z" fill="#FF0000"/>
<path d="M593.739 150.382C600.45 160.855 606.544 171.711 611.99 182.894L324.299 323.015L593.739 150.382Z" fill="#FF0000"/>
<path d="M627.224 219.88C631.233 231.655 634.552 243.653 637.164 255.815L324.299 323.015L627.224 219.88Z" fill="#FF0000"/>
<path d="M643.103 295.371C644.178 307.763 644.529 320.208 644.154 332.641L324.299 323.015L643.103 295.371Z" fill="#FF0000"/>
<path d="M556.759 332.539C553.255 293.21 547.484 285.55 545.303 282.67C540.291 276.012 532.272 271.662 523.785 267.097C523.305 266.844 522.89 266.482 522.574 266.04C522.258 265.599 522.049 265.09 521.963 264.554C521.877 264.018 521.917 263.469 522.079 262.951C522.242 262.433 522.522 261.96 522.899 261.569C524.471 259.975 525.679 258.06 526.44 255.955C527.201 253.85 527.497 251.605 527.308 249.374C526.942 245.419 525.103 241.746 522.155 239.083C519.208 236.42 515.367 234.963 511.395 234.999H496.212C495.561 235.003 494.911 235.045 494.266 235.126C493.822 234.934 493.363 234.78 492.893 234.668C483.901 215.661 471.589 189.636 446.07 176.935C408.22 158.112 338.495 157.138 324.87 157.138C311.244 157.138 241.52 158.112 203.718 176.905C178.2 189.606 165.888 215.631 156.895 234.639L156.817 234.795C156.368 234.858 155.928 234.969 155.503 235.126C154.857 235.045 154.207 235.003 153.557 234.999H138.344C134.373 234.963 130.532 236.42 127.584 239.083C124.637 241.746 122.798 245.419 122.432 249.374C122.259 251.6 122.568 253.836 123.339 255.931C124.11 258.025 125.325 259.929 126.899 261.511C127.276 261.902 127.556 262.375 127.719 262.893C127.881 263.411 127.921 263.96 127.835 264.496C127.749 265.032 127.54 265.541 127.224 265.982C126.908 266.423 126.493 266.785 126.013 267.039C117.526 271.633 109.468 275.983 104.495 282.611C102.314 285.531 96.5527 293.152 93.0392 332.481C91.0927 354.613 90.8008 377.523 92.3288 392.278C95.5308 422.936 101.536 441.467 101.789 442.235C102.71 445.033 104.407 447.513 106.681 449.385C108.955 451.258 111.713 452.447 114.636 452.815V453.009C114.636 457.139 116.277 461.1 119.197 464.021C122.117 466.941 126.078 468.582 130.208 468.582H184.711C188.841 468.582 192.801 466.941 195.722 464.021C198.642 461.1 200.283 457.139 200.283 453.009C208.663 453.009 214.492 451.511 220.673 449.915C229.595 447.51 238.716 445.911 247.924 445.136C277.618 442.304 307.147 441.33 324.87 441.33C342.233 441.33 373.066 442.304 402.808 445.136C412.053 445.913 421.209 447.519 430.167 449.934C436.084 451.452 441.7 452.854 449.476 453C449.476 457.13 451.117 461.091 454.037 464.011C456.958 466.931 460.918 468.572 465.048 468.572H519.551C523.681 468.572 527.642 466.931 530.562 464.011C533.483 461.091 535.123 457.13 535.123 453V452.883C538.053 452.522 540.82 451.336 543.101 449.463C545.383 447.59 547.085 445.107 548.009 442.304C548.262 441.535 554.267 423.004 557.469 392.346C558.997 377.582 558.725 354.71 556.759 332.539Z" fill="white"/>
<path d="M556.759 332.539C553.255 293.21 547.484 285.55 545.303 282.67C540.291 276.012 532.272 271.662 523.785 267.097C523.305 266.844 522.89 266.482 522.574 266.04C522.258 265.599 522.049 265.09 521.963 264.554C521.877 264.018 521.917 263.469 522.079 262.951C522.242 262.433 522.522 261.96 522.899 261.569C524.471 259.975 525.679 258.06 526.44 255.955C527.201 253.85 527.497 251.605 527.308 249.374C526.942 245.419 525.103 241.746 522.155 239.083C519.208 236.42 515.367 234.963 511.395 234.999H496.212C495.561 235.003 494.911 235.045 494.266 235.126C493.822 234.934 493.363 234.78 492.893 234.668C483.901 215.661 471.589 189.636 446.07 176.935C408.22 158.112 338.495 157.138 324.87 157.138C311.244 157.138 241.52 158.112 203.718 176.905C178.2 189.606 165.888 215.631 156.895 234.639L156.817 234.795C156.368 234.858 155.928 234.969 155.503 235.126C154.857 235.045 154.207 235.003 153.557 234.999H138.345C134.373 234.963 130.532 236.42 127.584 239.083C124.637 241.746 122.798 245.419 122.432 249.374C122.259 251.6 122.568 253.836 123.339 255.931C124.11 258.025 125.325 259.929 126.899 261.511C127.276 261.902 127.556 262.375 127.719 262.893C127.881 263.411 127.921 263.96 127.835 264.496C127.749 265.032 127.54 265.541 127.224 265.982C126.908 266.423 126.493 266.785 126.013 267.039C117.526 271.633 109.468 275.983 104.495 282.611C102.314 285.531 96.5527 293.152 93.0392 332.481C91.0927 354.613 90.8008 377.523 92.3288 392.278C95.5308 422.936 101.536 441.467 101.789 442.235C102.71 445.033 104.407 447.513 106.681 449.385C108.955 451.258 111.713 452.447 114.636 452.815V453.009C114.636 457.139 116.277 461.1 119.197 464.021C122.117 466.941 126.078 468.582 130.208 468.582H184.711C188.841 468.582 192.801 466.941 195.722 464.021C198.642 461.1 200.283 457.139 200.283 453.009C208.663 453.009 214.492 451.511 220.673 449.915C229.595 447.51 238.716 445.911 247.924 445.136C277.618 442.304 307.147 441.33 324.87 441.33C342.233 441.33 373.066 442.304 402.808 445.136C412.053 445.913 421.209 447.519 430.167 449.934C436.084 451.452 441.7 452.854 449.476 453C449.476 457.13 451.117 461.091 454.037 464.011C456.958 466.931 460.918 468.572 465.048 468.572H519.551C523.681 468.572 527.642 466.931 530.562 464.011C533.483 461.091 535.123 457.13 535.123 453V452.883C538.053 452.522 540.82 451.336 543.101 449.463C545.383 447.59 547.085 445.107 548.009 442.304C548.262 441.535 554.267 423.004 557.469 392.346C558.997 377.582 558.725 354.71 556.759 332.539ZM185.042 247.953C192.828 231.408 201.733 212.682 217.587 204.789C240.498 193.383 287.983 188.244 324.87 188.244C361.756 188.244 409.242 193.344 432.152 204.789C448.007 212.682 456.873 231.418 464.698 247.953L465.671 250.065C466.24 251.268 466.492 252.596 466.402 253.923C466.312 255.25 465.884 256.532 465.158 257.647C464.431 258.761 463.432 259.671 462.254 260.29C461.077 260.908 459.76 261.215 458.43 261.18C426.089 260.304 357.961 257.501 324.87 257.501C291.779 257.501 223.651 260.372 191.261 261.248C189.931 261.283 188.614 260.976 187.437 260.358C186.259 259.739 185.259 258.829 184.533 257.715C183.807 256.6 183.379 255.318 183.289 253.991C183.199 252.664 183.45 251.336 184.02 250.133C184.36 249.413 184.72 248.683 185.042 247.953ZM196.653 325.454C179.911 327.469 163.061 328.464 146.199 328.432C135.882 328.432 125.244 325.512 123.269 316.325C121.916 310.145 122.062 306.67 122.792 303.176C123.405 300.208 124.378 298.047 129.245 297.288C141.897 295.341 148.973 297.784 169.683 303.887C183.416 307.926 193.324 313.308 198.969 317.571C201.801 319.673 200.293 325.162 196.653 325.454ZM412.113 405.261C399.305 406.721 373.689 406.186 325.162 406.186C276.635 406.186 251.029 406.721 238.22 405.261C225.004 403.792 208.156 391.295 219.66 380.161C227.32 372.823 245.189 367.333 268.985 364.248C292.781 361.163 302.855 359.577 325.064 359.577C347.274 359.577 356.326 360.55 381.144 364.258C405.962 367.966 424.717 373.523 430.469 380.171C440.96 392.083 425.32 403.714 412.113 405.32V405.261ZM526.471 316.315C524.524 325.542 513.818 328.422 503.541 328.422C486.355 328.426 469.184 327.432 452.114 325.444C449.136 325.162 447.754 319.936 450.771 317.561C456.328 313.191 466.343 307.916 480.056 303.877C500.767 297.775 512.709 295.332 522.967 297.366C525.468 297.862 526.792 300.548 526.948 302.232C527.634 306.92 527.473 311.694 526.471 316.325V316.315Z" fill="black"/>
</svg>
