<svg width="706" height="694" viewBox="0 0 706 694" fill="none" xmlns="http://www.w3.org/2000/svg">
<rect x="26" y="21" width="656.599" height="654.03" rx="327.015" fill="black"/>
<path d="M670.455 397.469C668.532 409.758 665.895 421.925 662.556 433.907L354.299 348.015L670.455 397.469Z" fill="#FF0000"/>
<path d="M649.433 471.693C644.625 483.165 639.153 494.347 633.044 505.182L354.299 348.015L649.433 471.693Z" fill="#FF0000"/>
<path d="M611.259 538.729C603.845 548.717 595.856 558.265 587.331 567.323L354.299 348.015L611.259 538.729Z" fill="#FF0000"/>
<path d="M558.151 594.682C548.563 602.606 538.521 609.964 528.076 616.719L354.299 348.015L558.151 594.682Z" fill="#FF0000"/>
<path d="M493.196 636.299C481.99 641.698 470.479 646.439 458.721 650.498L354.299 348.015L493.196 636.299Z" fill="#FF0000"/>
<path d="M420.169 661.162C407.997 663.723 395.686 665.571 383.298 666.698L354.299 348.015L420.169 661.162Z" fill="#FF0000"/>
<path d="M343.314 667.826C330.883 667.399 318.487 666.248 306.189 664.378L354.299 348.015L343.314 667.826Z" fill="#FF0000"/>
<path d="M267.097 655.904C255.129 652.515 243.369 648.43 231.877 643.671L354.299 348.015L267.097 655.904Z" fill="#FF0000"/>
<path d="M195.948 626.089C185.14 619.933 174.699 613.153 164.679 605.783L354.299 348.015L195.948 626.089Z" fill="#FF0000"/>
<path d="M134.002 580.113C124.981 571.549 116.466 562.468 108.501 552.913L354.299 348.015L134.002 580.113Z" fill="#FF0000"/>
<path d="M84.8593 520.648C78.1489 510.174 72.0549 499.319 66.6083 488.136L354.299 348.015L84.8593 520.648Z" fill="#FF0000"/>
<path d="M51.375 451.15C47.3661 439.375 44.0471 427.377 41.435 415.215L354.299 348.015L51.375 451.15Z" fill="#FF0000"/>
<path d="M35.4956 375.659C34.421 363.266 34.07 350.822 34.4441 338.389L354.299 348.015L35.4956 375.659Z" fill="#FF0000"/>
<path d="M38.1439 298.561C40.0662 286.271 42.7034 274.105 46.0421 262.123L354.299 348.015L38.1439 298.561Z" fill="#FF0000"/>
<path d="M59.1659 224.337C63.9734 212.865 69.4457 201.683 75.5549 190.848L354.299 348.015L59.1659 224.337Z" fill="#FF0000"/>
<path d="M97.3401 157.301C104.753 147.312 112.743 137.765 121.267 128.707L354.299 348.015L97.3401 157.301Z" fill="#FF0000"/>
<path d="M150.448 101.348C160.036 93.4241 170.078 86.066 180.523 79.3112L354.299 348.015L150.448 101.348Z" fill="#FF0000"/>
<path d="M215.403 59.7308C226.608 54.3318 238.12 49.5907 249.877 45.5318L354.299 348.015L215.403 59.7308Z" fill="#FF0000"/>
<path d="M288.43 34.8677C300.602 32.3072 312.913 30.4587 325.301 29.3315L354.299 348.015L288.43 34.8677Z" fill="#FF0000"/>
<path d="M365.285 28.2035C377.716 28.6305 390.112 29.782 402.409 31.6521L354.299 348.015L365.285 28.2035Z" fill="#FF0000"/>
<path d="M441.501 40.1256C453.469 43.5152 465.229 47.5998 476.722 52.3584L354.299 348.015L441.501 40.1256Z" fill="#FF0000"/>
<path d="M512.65 69.9411C523.459 76.0963 533.9 82.8766 543.92 90.2473L354.299 348.015L512.65 69.9411Z" fill="#FF0000"/>
<path d="M574.596 115.917C583.618 124.48 592.133 133.562 600.097 143.117L354.299 348.015L574.596 115.917Z" fill="#FF0000"/>
<path d="M623.739 175.382C630.45 185.855 636.544 196.711 641.99 207.894L354.299 348.015L623.739 175.382Z" fill="#FF0000"/>
<path d="M657.224 244.88C661.233 256.655 664.552 268.653 667.164 280.815L354.299 348.015L657.224 244.88Z" fill="#FF0000"/>
<path d="M673.103 320.371C674.178 332.763 674.529 345.208 674.154 357.641L354.299 348.015L673.103 320.371Z" fill="#FF0000"/>
<path d="M586.759 357.539C583.255 318.21 577.484 310.55 575.303 307.67C570.291 301.012 562.272 296.662 553.785 292.097C553.305 291.844 552.89 291.482 552.574 291.04C552.258 290.599 552.049 290.09 551.963 289.554C551.877 289.018 551.917 288.469 552.079 287.951C552.242 287.433 552.522 286.96 552.899 286.569C554.471 284.975 555.679 283.06 556.44 280.955C557.201 278.85 557.497 276.605 557.308 274.374C556.942 270.419 555.103 266.746 552.155 264.083C549.208 261.42 545.367 259.963 541.395 259.999H526.212C525.561 260.003 524.911 260.045 524.266 260.126C523.822 259.934 523.363 259.78 522.893 259.668C513.901 240.661 501.589 214.636 476.07 201.935C438.22 183.112 368.495 182.138 354.87 182.138C341.244 182.138 271.52 183.112 233.718 201.905C208.2 214.606 195.888 240.631 186.895 259.639L186.817 259.795C186.368 259.858 185.928 259.969 185.503 260.126C184.857 260.045 184.207 260.003 183.557 259.999H168.344C164.373 259.963 160.532 261.42 157.584 264.083C154.637 266.746 152.798 270.419 152.432 274.374C152.259 276.6 152.568 278.836 153.339 280.931C154.11 283.025 155.325 284.929 156.899 286.511C157.276 286.902 157.556 287.375 157.719 287.893C157.881 288.411 157.921 288.96 157.835 289.496C157.749 290.032 157.54 290.541 157.224 290.982C156.908 291.423 156.493 291.785 156.013 292.039C147.526 296.633 139.468 300.983 134.495 307.611C132.314 310.531 126.553 318.152 123.039 357.481C121.093 379.613 120.801 402.523 122.329 417.278C125.531 447.936 131.536 466.467 131.789 467.235C132.71 470.033 134.407 472.513 136.681 474.385C138.955 476.258 141.713 477.447 144.636 477.815V478.009C144.636 482.139 146.277 486.1 149.197 489.021C152.117 491.941 156.078 493.582 160.208 493.582H214.711C218.841 493.582 222.801 491.941 225.722 489.021C228.642 486.1 230.283 482.139 230.283 478.009C238.663 478.009 244.492 476.511 250.673 474.915C259.595 472.51 268.716 470.911 277.924 470.136C307.618 467.304 337.147 466.33 354.87 466.33C372.233 466.33 403.066 467.304 432.808 470.136C442.053 470.913 451.209 472.519 460.167 474.934C466.084 476.452 471.7 477.854 479.476 478C479.476 482.13 481.117 486.091 484.037 489.011C486.958 491.931 490.918 493.572 495.048 493.572H549.551C553.681 493.572 557.642 491.931 560.562 489.011C563.483 486.091 565.123 482.13 565.123 478V477.883C568.053 477.522 570.82 476.336 573.101 474.463C575.383 472.59 577.085 470.107 578.009 467.304C578.262 466.535 584.267 448.004 587.469 417.346C588.997 402.582 588.725 379.71 586.759 357.539Z" fill="white"/>
<path d="M586.759 357.539C583.255 318.21 577.484 310.55 575.303 307.67C570.291 301.012 562.272 296.662 553.785 292.097C553.305 291.844 552.89 291.482 552.574 291.04C552.258 290.599 552.049 290.09 551.963 289.554C551.877 289.018 551.917 288.469 552.079 287.951C552.242 287.433 552.522 286.96 552.899 286.569C554.471 284.975 555.679 283.06 556.44 280.955C557.201 278.85 557.497 276.605 557.308 274.374C556.942 270.419 555.103 266.746 552.155 264.083C549.208 261.42 545.367 259.963 541.395 259.999H526.212C525.561 260.003 524.911 260.045 524.266 260.126C523.822 259.934 523.363 259.78 522.893 259.668C513.901 240.661 501.589 214.636 476.07 201.935C438.22 183.112 368.495 182.138 354.87 182.138C341.244 182.138 271.52 183.112 233.718 201.905C208.2 214.606 195.888 240.631 186.895 259.639L186.817 259.795C186.368 259.858 185.928 259.969 185.503 260.126C184.857 260.045 184.207 260.003 183.557 259.999H168.345C164.373 259.963 160.532 261.42 157.584 264.083C154.637 266.746 152.798 270.419 152.432 274.374C152.259 276.6 152.568 278.836 153.339 280.931C154.11 283.025 155.325 284.929 156.899 286.511C157.276 286.902 157.556 287.375 157.719 287.893C157.881 288.411 157.921 288.96 157.835 289.496C157.749 290.032 157.54 290.541 157.224 290.982C156.908 291.423 156.493 291.785 156.013 292.039C147.526 296.633 139.468 300.983 134.495 307.611C132.314 310.531 126.553 318.152 123.039 357.481C121.093 379.613 120.801 402.523 122.329 417.278C125.531 447.936 131.536 466.467 131.789 467.235C132.71 470.033 134.407 472.513 136.681 474.385C138.955 476.258 141.713 477.447 144.636 477.815V478.009C144.636 482.139 146.277 486.1 149.197 489.021C152.117 491.941 156.078 493.582 160.208 493.582H214.711C218.841 493.582 222.801 491.941 225.722 489.021C228.642 486.1 230.283 482.139 230.283 478.009C238.663 478.009 244.492 476.511 250.673 474.915C259.595 472.51 268.716 470.911 277.924 470.136C307.618 467.304 337.147 466.33 354.87 466.33C372.233 466.33 403.066 467.304 432.808 470.136C442.053 470.913 451.209 472.519 460.167 474.934C466.084 476.452 471.7 477.854 479.476 478C479.476 482.13 481.117 486.091 484.037 489.011C486.958 491.931 490.918 493.572 495.048 493.572H549.551C553.681 493.572 557.642 491.931 560.562 489.011C563.483 486.091 565.123 482.13 565.123 478V477.883C568.053 477.522 570.82 476.336 573.101 474.463C575.383 472.59 577.085 470.107 578.009 467.304C578.262 466.535 584.267 448.004 587.469 417.346C588.997 402.582 588.725 379.71 586.759 357.539ZM215.042 272.953C222.828 256.408 231.733 237.682 247.587 229.789C270.498 218.383 317.983 213.244 354.87 213.244C391.756 213.244 439.242 218.344 462.152 229.789C478.007 237.682 486.873 256.418 494.698 272.953L495.671 275.065C496.24 276.268 496.492 277.596 496.402 278.923C496.312 280.25 495.884 281.532 495.158 282.647C494.431 283.761 493.432 284.671 492.254 285.29C491.077 285.908 489.76 286.215 488.43 286.18C456.089 285.304 387.961 282.501 354.87 282.501C321.779 282.501 253.651 285.372 221.261 286.248C219.931 286.283 218.614 285.976 217.437 285.358C216.259 284.739 215.259 283.829 214.533 282.715C213.807 281.6 213.379 280.318 213.289 278.991C213.199 277.664 213.45 276.336 214.02 275.133C214.36 274.413 214.72 273.683 215.042 272.953ZM226.653 350.454C209.911 352.469 193.061 353.464 176.199 353.432C165.882 353.432 155.244 350.512 153.269 341.325C151.916 335.145 152.062 331.67 152.792 328.176C153.405 325.208 154.378 323.047 159.245 322.288C171.897 320.341 178.973 322.784 199.683 328.887C213.416 332.926 223.324 338.308 228.969 342.571C231.801 344.673 230.293 350.162 226.653 350.454ZM442.113 430.261C429.305 431.721 403.689 431.186 355.162 431.186C306.635 431.186 281.029 431.721 268.22 430.261C255.004 428.792 238.156 416.295 249.66 405.161C257.32 397.823 275.189 392.333 298.985 389.248C322.781 386.163 332.855 384.577 355.064 384.577C377.274 384.577 386.326 385.55 411.144 389.258C435.962 392.966 454.717 398.523 460.469 405.171C470.96 417.083 455.32 428.714 442.113 430.32V430.261ZM556.471 341.315C554.524 350.542 543.818 353.422 533.541 353.422C516.355 353.426 499.184 352.432 482.114 350.444C479.136 350.162 477.754 344.936 480.771 342.561C486.328 338.191 496.343 332.916 510.056 328.877C530.767 322.775 542.709 320.332 552.967 322.366C555.468 322.862 556.792 325.548 556.948 327.232C557.634 331.92 557.473 336.694 556.471 341.325V341.315Z" fill="black"/>
<rect x="26" y="21" width="656.599" height="654.03" rx="327.015" stroke="black" stroke-width="8"/>
</svg>
