<svg width="1680" height="698" viewBox="0 0 1680 698" fill="none" xmlns="http://www.w3.org/2000/svg">
<path d="M665.155 398.454C663.233 410.743 660.596 422.91 657.257 434.892L349 349L665.155 398.454Z" fill="#FF0000"/>
<path d="M644.133 472.678C639.326 484.15 633.854 495.332 627.744 506.167L349 349L644.133 472.678Z" fill="#FF0000"/>
<path d="M605.959 539.714C598.546 549.703 590.557 559.25 582.032 568.308L349 349L605.959 539.714Z" fill="#FF0000"/>
<path d="M552.852 595.667C543.263 603.591 533.221 610.949 522.777 617.704L349 349L552.852 595.667Z" fill="#FF0000"/>
<path d="M487.897 637.284C476.691 642.683 465.18 647.424 453.422 651.483L349 349L487.897 637.284Z" fill="#FF0000"/>
<path d="M414.87 662.147C402.697 664.708 390.386 666.556 377.999 667.683L349 349L414.87 662.147Z" fill="#FF0000"/>
<path d="M338.015 668.811C325.583 668.384 313.187 667.233 300.89 665.363L349 349L338.015 668.811Z" fill="#FF0000"/>
<path d="M261.798 656.889C249.83 653.5 238.07 649.415 226.578 644.656L349 349L261.798 656.889Z" fill="#FF0000"/>
<path d="M190.649 627.074C179.84 620.919 169.399 614.138 159.38 606.768L349 349L190.649 627.074Z" fill="#FF0000"/>
<path d="M128.703 581.098C119.681 572.534 111.166 563.453 103.202 553.898L349 349L128.703 581.098Z" fill="#FF0000"/>
<path d="M79.56 521.633C72.8496 511.159 66.7556 500.304 61.309 489.121L349 349L79.56 521.633Z" fill="#FF0000"/>
<path d="M46.0757 452.135C42.0668 440.36 38.7478 428.362 36.1356 416.2L349 349L46.0757 452.135Z" fill="#FF0000"/>
<path d="M30.1963 376.644C29.1217 364.252 28.7707 351.807 29.1448 339.374L349 349L30.1963 376.644Z" fill="#FF0000"/>
<path d="M32.8445 299.546C34.7669 287.257 37.4041 275.09 40.7428 263.108L349 349L32.8445 299.546Z" fill="#FF0000"/>
<path d="M53.8666 225.322C58.6741 213.85 64.1464 202.668 70.2556 191.833L349 349L53.8666 225.322Z" fill="#FF0000"/>
<path d="M92.0408 158.286C99.454 148.297 107.443 138.75 115.968 129.692L349 349L92.0408 158.286Z" fill="#FF0000"/>
<path d="M145.148 102.333C154.737 94.4092 164.779 87.0512 175.223 80.2963L349 349L145.148 102.333Z" fill="#FF0000"/>
<path d="M210.103 60.7159C221.309 55.3169 232.82 50.5758 244.578 46.5169L349 349L210.103 60.7159Z" fill="#FF0000"/>
<path d="M283.13 35.8528C295.303 33.2924 307.614 31.4439 320.001 30.3166L349 349L283.13 35.8528Z" fill="#FF0000"/>
<path d="M359.985 29.1886C372.417 29.6156 384.813 30.7671 397.11 32.6372L349 349L359.985 29.1886Z" fill="#FF0000"/>
<path d="M436.202 41.1107C448.17 44.5003 459.93 48.5849 471.422 53.3435L349 349L436.202 41.1107Z" fill="#FF0000"/>
<path d="M507.351 70.9262C518.16 77.0814 528.601 83.8617 538.62 91.2324L349 349L507.351 70.9262Z" fill="#FF0000"/>
<path d="M569.297 116.902C578.319 125.466 586.834 134.547 594.798 144.102L349 349L569.297 116.902Z" fill="#FF0000"/>
<path d="M618.44 176.367C625.15 186.841 631.244 197.696 636.691 208.879L349 349L618.44 176.367Z" fill="#FF0000"/>
<path d="M651.924 245.865C655.933 257.64 659.252 269.638 661.864 281.8L349 349L651.924 245.865Z" fill="#FF0000"/>
<path d="M667.804 321.356C668.878 333.748 669.229 346.193 668.855 358.626L349 349L667.804 321.356Z" fill="#FF0000"/>
<path d="M199.176 673.864H161.191L223.714 561.76H269.766L330.944 673.864H293.296L282.707 653.527H210.268L199.176 673.864ZM222.202 630.333H270.27L246.236 585.962L222.202 630.333Z" fill="white"/>
<path d="M487.444 632.35C487.444 649.83 482.85 661.371 473.662 666.973C464.586 672.463 450.524 675.208 431.476 675.208L403.576 675.04C388.786 675.04 377.469 674.256 369.626 672.687C361.782 671.119 355.451 667.141 350.633 660.754C345.815 654.368 343.406 644.339 343.406 630.669V561.928H377.525V620.585C377.525 631.79 378.869 639.073 381.559 642.434C384.248 645.796 391.027 647.477 401.895 647.477L417.19 647.645L431.308 647.477C440.608 647.477 446.546 646.02 449.124 643.107C451.813 640.193 453.157 634.311 453.157 625.459V561.928H487.444V632.35Z" fill="white"/>
<path d="M549.004 673.864V589.828H498.919V561.76H633.04V589.828H583.123V673.864H549.004Z" fill="white"/>
<path d="M716.838 560.583L744.066 560.751C764.011 560.751 777.624 564.057 784.908 570.668C792.303 577.279 796 590.5 796 610.333V615.711C796 639.017 793.087 654.648 787.261 662.603C781.434 670.446 766.7 674.368 743.058 674.368L717.343 674.872L706.586 675.04L683.392 674.2C670.395 674.2 660.366 671.287 653.307 665.46C646.248 659.522 642.719 649.998 642.719 636.888L642.383 616.215C642.383 593.469 645.296 578.623 651.122 571.676C656.949 564.617 670.787 561.088 692.636 561.088L716.838 560.583ZM698.35 647.14L716.67 647.477L734.15 647.308C743.786 647.308 750.677 646.3 754.823 644.283C759.081 642.154 761.209 637 761.209 628.821L761.546 613.694C761.546 608.54 761.209 604.17 760.537 600.584C759.977 596.887 758.744 594.198 756.84 592.517C754.935 590.724 752.077 589.548 748.268 588.988C744.57 588.427 740.593 588.147 736.335 588.147L702.384 588.315C694.653 588.315 688.77 589.1 684.737 590.668C680.703 592.237 678.35 595.598 677.678 600.753C677.117 605.795 676.837 609.997 676.837 613.358V620.921C676.837 631.23 678.014 638.177 680.367 641.762C682.832 645.348 688.826 647.14 698.35 647.14Z" fill="white"/>
<path d="M954.08 561.76C967.526 561.76 977.106 564.393 982.82 569.659C988.647 574.813 991.56 584.001 991.56 597.223C991.56 602.265 991.28 606.579 990.719 610.165C990.159 613.75 989.039 616.887 987.358 619.577C985.677 622.154 983.716 624.115 981.475 625.459C979.235 626.692 974.529 628.484 967.357 630.837C975.201 631.846 980.971 633.863 984.669 636.888C988.366 639.801 990.215 644.955 990.215 652.351V673.864H955.592V663.107C955.592 657.617 955.088 653.247 954.08 649.998C953.183 646.748 948.758 645.124 940.802 645.124H883.826V673.864H849.707V561.76H954.08ZM939.794 617.896C947.525 617.896 952.343 616.943 954.248 615.039C956.153 613.134 957.105 608.876 957.105 602.265C957.105 598.568 956.713 595.822 955.929 594.03C955.256 592.237 953.744 591.004 951.391 590.332C949.15 589.66 947.301 589.268 945.844 589.156C944.388 589.044 942.651 588.988 940.634 588.988H883.826V617.896H939.794Z" fill="white"/>
<path d="M1137.07 561.76V587.307H1046.14V606.467H1131.02V628.653H1046.14V648.485H1137.07V673.864H1012.02V561.76H1137.07Z" fill="white"/>
<path d="M1245.4 561.76C1262.32 561.76 1274.03 564.505 1280.53 569.995C1287.14 575.486 1290.44 586.522 1290.44 603.106C1290.44 618.792 1287.86 629.885 1282.71 636.384C1277.67 642.771 1267.02 645.964 1250.78 645.964H1188.76V673.864H1154.64V561.76H1245.4ZM1255.99 604.282C1255.99 598.007 1254.64 593.918 1251.95 592.013C1249.26 589.996 1244.56 588.988 1237.84 588.988H1188.76V618.736H1238.34C1244.84 618.736 1249.38 617.84 1251.95 616.047C1254.64 614.142 1255.99 610.221 1255.99 604.282Z" fill="white"/>
<path d="M1336.02 673.864H1298.03L1360.56 561.76H1406.61L1467.79 673.864H1430.14L1419.55 653.527H1347.11L1336.02 673.864ZM1359.04 630.333H1407.11L1383.08 585.962L1359.04 630.333Z" fill="white"/>
<path d="M1480.42 673.864V561.76H1514.54V673.864H1480.42Z" fill="white"/>
<path d="M1640.58 561.76C1654.03 561.76 1663.61 564.393 1669.32 569.659C1675.15 574.813 1678.06 584.001 1678.06 597.223C1678.06 602.265 1677.78 606.579 1677.22 610.165C1676.66 613.75 1675.54 616.887 1673.86 619.577C1672.18 622.154 1670.22 624.115 1667.98 625.459C1665.74 626.692 1661.03 628.484 1653.86 630.837C1661.7 631.846 1667.47 633.863 1671.17 636.888C1674.87 639.801 1676.72 644.955 1676.72 652.351V673.864H1642.09V663.107C1642.09 657.617 1641.59 653.247 1640.58 649.998C1639.68 646.748 1635.26 645.124 1627.3 645.124H1570.33V673.864H1536.21V561.76H1640.58ZM1626.3 617.896C1634.03 617.896 1638.84 616.943 1640.75 615.039C1642.65 613.134 1643.61 608.876 1643.61 602.265C1643.61 598.568 1643.21 595.822 1642.43 594.03C1641.76 592.237 1640.25 591.004 1637.89 590.332C1635.65 589.66 1633.8 589.268 1632.35 589.156C1630.89 589.044 1629.15 588.988 1627.14 588.988H1570.33V617.896H1626.3Z" fill="white"/>
<path d="M581.459 358.524C577.956 319.195 572.184 311.535 570.004 308.654C564.992 301.997 556.972 297.647 548.485 293.082C548.005 292.828 547.591 292.467 547.275 292.025C546.959 291.584 546.749 291.075 546.664 290.539C546.578 290.003 546.617 289.454 546.78 288.936C546.942 288.418 547.223 287.945 547.6 287.554C549.171 285.96 550.379 284.045 551.14 281.94C551.901 279.835 552.198 277.59 552.009 275.359C551.643 271.404 549.803 267.731 546.856 265.068C543.908 262.405 540.068 260.948 536.096 260.984H520.913C520.262 260.988 519.612 261.03 518.966 261.111C518.523 260.918 518.064 260.765 517.594 260.653C508.601 241.645 496.289 215.621 470.771 202.919C432.92 184.097 363.196 183.123 349.57 183.123C335.945 183.123 266.22 184.097 228.419 202.89C202.9 215.591 190.588 241.616 181.596 260.624L181.518 260.78C181.069 260.843 180.629 260.954 180.204 261.111C179.558 261.03 178.908 260.988 178.257 260.984H163.045C159.073 260.948 155.233 262.405 152.285 265.068C149.338 267.731 147.498 271.404 147.132 275.359C146.96 277.585 147.269 279.821 148.04 281.916C148.811 284.01 150.025 285.914 151.6 287.496C151.976 287.887 152.257 288.36 152.419 288.878C152.582 289.396 152.622 289.945 152.536 290.481C152.45 291.017 152.241 291.526 151.924 291.967C151.608 292.408 151.194 292.77 150.714 293.024C142.227 297.618 134.169 301.968 129.195 308.596C127.015 311.516 121.253 319.136 117.74 358.466C115.793 380.598 115.501 403.508 117.029 418.263C120.231 448.921 126.236 467.452 126.49 468.22C127.411 471.018 129.107 473.498 131.381 475.37C133.655 477.243 136.414 478.432 139.337 478.8V478.994C139.337 483.124 140.977 487.085 143.898 490.006C146.818 492.926 150.779 494.567 154.909 494.567H209.411C213.541 494.567 217.502 492.926 220.422 490.006C223.343 487.085 224.983 483.124 224.983 478.994C233.363 478.994 239.193 477.496 245.373 475.899C254.296 473.495 263.416 471.896 272.625 471.121C302.319 468.289 331.847 467.315 349.57 467.315C366.933 467.315 397.766 468.289 427.509 471.121C436.754 471.898 445.91 473.503 454.867 475.919C460.785 477.437 466.401 478.839 474.177 478.985C474.177 483.115 475.818 487.076 478.738 489.996C481.658 492.916 485.619 494.557 489.749 494.557H544.252C548.382 494.557 552.343 492.916 555.263 489.996C558.183 487.076 559.824 483.115 559.824 478.985V478.868C562.754 478.507 565.52 477.321 567.802 475.448C570.083 473.575 571.785 471.092 572.71 468.289C572.963 467.52 578.968 448.989 582.17 418.331C583.698 403.567 583.425 380.695 581.459 358.524Z" fill="white"/>
<path d="M581.459 358.524C577.956 319.195 572.184 311.535 570.004 308.654C564.992 301.997 556.972 297.647 548.485 293.082C548.005 292.828 547.591 292.467 547.275 292.025C546.959 291.584 546.749 291.075 546.664 290.539C546.578 290.003 546.618 289.454 546.78 288.936C546.942 288.418 547.223 287.945 547.6 287.554C549.171 285.96 550.379 284.045 551.14 281.94C551.901 279.835 552.198 277.59 552.009 275.359C551.643 271.404 549.803 267.731 546.856 265.068C543.908 262.405 540.068 260.948 536.096 260.984H520.913C520.262 260.988 519.612 261.03 518.966 261.111C518.523 260.918 518.064 260.765 517.594 260.653C508.601 241.645 496.289 215.621 470.771 202.919C432.92 184.097 363.196 183.123 349.57 183.123C335.945 183.123 266.22 184.097 228.419 202.89C202.9 215.591 190.588 241.616 181.596 260.624L181.518 260.78C181.069 260.843 180.629 260.954 180.204 261.111C179.558 261.03 178.908 260.988 178.257 260.984H163.045C159.073 260.948 155.233 262.405 152.285 265.068C149.338 267.731 147.498 271.404 147.132 275.359C146.96 277.585 147.269 279.821 148.04 281.916C148.811 284.01 150.025 285.914 151.6 287.496C151.976 287.887 152.257 288.36 152.419 288.878C152.582 289.396 152.622 289.945 152.536 290.481C152.45 291.017 152.241 291.526 151.924 291.967C151.608 292.408 151.194 292.77 150.714 293.024C142.227 297.618 134.169 301.968 129.195 308.596C127.015 311.516 121.253 319.136 117.74 358.466C115.793 380.598 115.501 403.508 117.029 418.263C120.231 448.921 126.236 467.452 126.49 468.22C127.411 471.018 129.107 473.498 131.381 475.37C133.655 477.243 136.414 478.432 139.337 478.8V478.994C139.337 483.124 140.977 487.085 143.898 490.006C146.818 492.926 150.779 494.567 154.909 494.567H209.411C213.541 494.567 217.502 492.926 220.422 490.006C223.343 487.085 224.983 483.124 224.983 478.994C233.363 478.994 239.193 477.496 245.373 475.899C254.296 473.495 263.416 471.896 272.625 471.121C302.319 468.289 331.847 467.315 349.57 467.315C366.933 467.315 397.766 468.289 427.509 471.121C436.754 471.898 445.91 473.503 454.867 475.919C460.785 477.437 466.401 478.839 474.177 478.985C474.177 483.115 475.818 487.076 478.738 489.996C481.658 492.916 485.619 494.557 489.749 494.557H544.252C548.382 494.557 552.343 492.916 555.263 489.996C558.183 487.076 559.824 483.115 559.824 478.985V478.868C562.754 478.507 565.52 477.321 567.802 475.448C570.083 473.575 571.785 471.092 572.71 468.289C572.963 467.52 578.968 448.989 582.17 418.331C583.698 403.567 583.425 380.695 581.459 358.524ZM209.742 273.938C217.528 257.393 226.434 238.667 242.288 230.774C265.199 219.368 312.684 214.229 349.57 214.229C386.457 214.229 433.942 219.329 456.853 230.774C472.707 238.667 481.574 257.403 489.399 273.938L490.372 276.05C490.941 277.253 491.193 278.581 491.103 279.908C491.013 281.235 490.584 282.517 489.858 283.632C489.132 284.746 488.133 285.656 486.955 286.275C485.777 286.893 484.461 287.2 483.131 287.165C450.79 286.289 382.661 283.486 349.57 283.486C316.48 283.486 248.351 286.357 215.961 287.233C214.632 287.268 213.315 286.961 212.137 286.343C210.96 285.724 209.96 284.814 209.234 283.7C208.508 282.585 208.079 281.303 207.989 279.976C207.9 278.649 208.151 277.321 208.72 276.118C209.061 275.398 209.421 274.668 209.742 273.938ZM221.353 351.439C204.611 353.454 187.762 354.449 170.899 354.417C160.583 354.417 149.945 351.497 147.969 342.31C146.617 336.13 146.763 332.655 147.492 329.161C148.106 326.193 149.079 324.032 153.945 323.273C166.598 321.326 173.673 323.769 194.384 329.872C208.117 333.911 218.025 339.293 223.67 343.556C226.502 345.658 224.993 351.147 221.353 351.439ZM436.814 431.246C424.005 432.706 398.389 432.171 349.862 432.171C301.336 432.171 275.729 432.706 262.921 431.246C249.704 429.777 232.857 417.28 244.361 406.146C252.021 398.808 269.89 393.318 293.686 390.233C317.482 387.148 327.555 385.561 349.765 385.561C371.975 385.561 381.026 386.535 405.844 390.243C430.663 393.951 449.417 399.508 455.169 406.156C465.661 418.068 450.021 429.699 436.814 431.305V431.246ZM551.172 342.3C549.225 351.527 538.519 354.407 528.242 354.407C511.056 354.411 493.885 353.417 476.814 351.429C473.836 351.147 472.454 345.921 475.471 343.546C481.029 339.176 491.044 333.901 504.757 329.862C525.468 323.759 537.41 321.317 547.668 323.351C550.169 323.847 551.493 326.533 551.648 328.217C552.335 332.905 552.173 337.679 551.172 342.31V342.3Z" fill="black"/>
<path d="M785.104 396.849C785.104 429.657 781.07 454.532 773.003 471.473C765.204 488.146 751.489 498.365 731.859 502.129C712.497 505.625 695.69 507.642 681.437 508.18C667.185 508.718 653.604 508.987 640.696 508.987C605.2 508.987 578.846 507.373 561.635 504.146C544.694 500.65 531.517 491.642 522.105 477.12C512.693 462.33 507.987 438.262 507.987 404.917L508.39 391.605H587.048L586.644 409.354C586.644 423.606 590.813 432.884 599.149 437.186C607.754 441.22 620.124 443.237 636.259 443.237H658.041C671.218 443.237 681.975 441.624 690.311 438.397C698.648 434.901 702.816 427.909 702.816 417.421L703.219 396.849V237.517H785.104V396.849Z" fill="white"/>
<path d="M1064.09 237.517C1112.77 237.517 1145.44 245.584 1162.11 261.719C1178.78 277.854 1187.12 310.124 1187.12 358.529V389.589C1187.12 402.228 1186.85 411.102 1186.31 416.211C1186.05 421.32 1184.57 431.808 1181.88 447.674C1179.19 463.271 1169.91 476.986 1154.04 488.818C1138.18 500.65 1118.28 506.567 1094.35 506.567H826.909V237.517H1064.09ZM1104.43 373.05V370.63C1104.43 344.276 1101.47 326.528 1095.56 317.385C1089.64 308.242 1073.77 303.67 1047.96 303.67H908.794V440.817H1046.75C1072.03 440.817 1087.89 436.111 1094.35 426.699C1101.07 417.287 1104.43 399.404 1104.43 373.05Z" fill="white"/>
<path d="M1601.68 506.567V301.653L1483.09 506.567H1417.34L1299.96 301.653V506.567H1222.91V237.517H1353.2L1452.03 415.808L1549.65 237.517H1679.13V506.567H1601.68Z" fill="white"/>
</svg>
